<svg width="40" height="40" viewBox="0 0 40 40" fill="none" xmlns="http://www.w3.org/2000/svg">
<path fill-rule="evenodd" clip-rule="evenodd" d="M11.4853 11.5147C11.8623 11.1377 12.4737 11.1377 12.8507 11.5147L19.8291 18.4931C19.9072 18.5712 20.0339 18.5712 20.112 18.4931L27.0904 11.5147C27.4675 11.1377 28.0788 11.1377 28.4558 11.5147C28.8329 11.8918 28.8329 12.5031 28.4558 12.8802L21.4774 19.8586C21.3993 19.9367 21.3993 20.0633 21.4774 20.1414L28.4558 27.1198C28.8329 27.4969 28.8329 28.1082 28.4558 28.4853C28.0788 28.8623 27.4675 28.8623 27.0904 28.4853L20.112 21.5069C20.0339 21.4288 19.9072 21.4288 19.8291 21.5069L12.8507 28.4853C12.4737 28.8623 11.8623 28.8623 11.4853 28.4853C11.1082 28.1082 11.1082 27.4969 11.4853 27.1198L18.4637 20.1414C18.5418 20.0633 18.5418 19.9367 18.4637 19.8586L11.4853 12.8802C11.1082 12.5031 11.1082 11.8918 11.4853 11.5147Z" fill="#1F2329"/>
</svg>
