<svg width="32" height="32" viewBox="0 0 32 32" fill="none" xmlns="http://www.w3.org/2000/svg">
<path d="M12.25 21V22C12.25 24.418 13.582 25.75 16 25.75H22C24.418 25.75 25.75 24.418 25.75 22V10C25.75 7.582 24.418 6.25 22 6.25H16C13.582 6.25 12.25 7.582 12.25 10V11C12.25 11.414 12.586 11.75 13 11.75C13.414 11.75 13.75 11.414 13.75 11V10C13.75 8.423 14.423 7.75 16 7.75H22C23.577 7.75 24.25 8.423 24.25 10V22C24.25 23.577 23.577 24.25 22 24.25H16C14.423 24.25 13.75 23.577 13.75 22V21C13.75 20.586 13.414 20.25 13 20.25C12.586 20.25 12.25 20.586 12.25 21ZM6.30798 16.287C6.23198 16.104 6.23198 15.897 6.30798 15.714C6.34598 15.622 6.40097 15.539 6.46997 15.47L9.46997 12.47C9.76297 12.177 10.238 12.177 10.531 12.47C10.824 12.763 10.824 13.238 10.531 13.531L8.81097 15.251H20C20.414 15.251 20.75 15.587 20.75 16.001C20.75 16.415 20.414 16.751 20 16.751H8.81097L10.531 18.471C10.824 18.764 10.824 19.239 10.531 19.532C10.385 19.678 10.193 19.752 10.001 19.752C9.80898 19.752 9.61701 19.679 9.47101 19.532L6.47101 16.532C6.40101 16.461 6.34598 16.378 6.30798 16.287Z" fill="black"/>
</svg>
